<svg width="135" height="29" viewBox="0 0 135 29" fill="none" xmlns="http://www.w3.org/2000/svg">
<path d="M2.52 23V6.2H9.6C11.392 6.2 12.968 6.552 14.328 7.256C15.704 7.96 16.768 8.944 17.52 10.208C18.288 11.472 18.672 12.936 18.672 14.6C18.672 16.264 18.288 17.728 17.52 18.992C16.768 20.256 15.704 21.24 14.328 21.944C12.968 22.648 11.392 23 9.6 23H2.52ZM4.92 20.912H9.456C10.848 20.912 12.048 20.648 13.056 20.12C14.08 19.592 14.872 18.856 15.432 17.912C15.992 16.952 16.272 15.848 16.272 14.6C16.272 13.336 15.992 12.232 15.432 11.288C14.872 10.344 14.08 9.608 13.056 9.08C12.048 8.552 10.848 8.288 9.456 8.288H4.92V20.912ZM29.9081 23V20.312L29.7881 19.808V15.224C29.7881 14.248 29.5001 13.496 28.9241 12.968C28.3641 12.424 27.5161 12.152 26.3801 12.152C25.6281 12.152 24.8921 12.28 24.1721 12.536C23.4521 12.776 22.8441 13.104 22.3481 13.52L21.3881 11.792C22.0441 11.264 22.8281 10.864 23.7401 10.592C24.6681 10.304 25.6361 10.16 26.6441 10.16C28.3881 10.16 29.7321 10.584 30.6761 11.432C31.6201 12.28 32.0921 13.576 32.0921 15.32V23H29.9081ZM25.7321 23.144C24.7881 23.144 23.9561 22.984 23.2361 22.664C22.5321 22.344 21.9881 21.904 21.6041 21.344C21.2201 20.768 21.0281 20.12 21.0281 19.4C21.0281 18.712 21.1881 18.088 21.5081 17.528C21.8441 16.968 22.3801 16.52 23.1161 16.184C23.8681 15.848 24.8761 15.68 26.1401 15.68H30.1721V17.336H26.2361C25.0841 17.336 24.3081 17.528 23.9081 17.912C23.5081 18.296 23.3081 18.76 23.3081 19.304C23.3081 19.928 23.5561 20.432 24.0521 20.816C24.5481 21.184 25.2361 21.368 26.1161 21.368C26.9801 21.368 27.7321 21.176 28.3721 20.792C29.0281 20.408 29.5001 19.848 29.7881 19.112L30.2441 20.696C29.9401 21.448 29.4041 22.048 28.6361 22.496C27.8681 22.928 26.9001 23.144 25.7321 23.144ZM40.0039 23.144C38.9479 23.144 37.9399 23 36.9799 22.712C36.0359 22.424 35.2919 22.072 34.7479 21.656L35.7079 19.832C36.2519 20.2 36.9239 20.512 37.7239 20.768C38.5239 21.024 39.3399 21.152 40.1719 21.152C41.2439 21.152 42.0119 21 42.4759 20.696C42.9559 20.392 43.1959 19.968 43.1959 19.424C43.1959 19.024 43.0519 18.712 42.7639 18.488C42.4759 18.264 42.0919 18.096 41.6119 17.984C41.1479 17.872 40.6279 17.776 40.0519 17.696C39.4759 17.6 38.8999 17.488 38.3239 17.36C37.7479 17.216 37.2199 17.024 36.7399 16.784C36.2599 16.528 35.8759 16.184 35.5879 15.752C35.2999 15.304 35.1559 14.712 35.1559 13.976C35.1559 13.208 35.3719 12.536 35.8039 11.96C36.2359 11.384 36.8439 10.944 37.6279 10.64C38.4279 10.32 39.3719 10.16 40.4599 10.16C41.2919 10.16 42.1319 10.264 42.9799 10.472C43.8439 10.664 44.5479 10.944 45.0919 11.312L44.1079 13.136C43.5319 12.752 42.9319 12.488 42.3079 12.344C41.6839 12.2 41.0599 12.128 40.4359 12.128C39.4279 12.128 38.6759 12.296 38.1799 12.632C37.6839 12.952 37.4359 13.368 37.4359 13.88C37.4359 14.312 37.5799 14.648 37.8679 14.888C38.1719 15.112 38.5559 15.288 39.0199 15.416C39.4999 15.544 40.0279 15.656 40.6039 15.752C41.1799 15.832 41.7559 15.944 42.3319 16.088C42.9079 16.216 43.4279 16.4 43.8919 16.64C44.3719 16.88 44.7559 17.216 45.0439 17.648C45.3479 18.08 45.4999 18.656 45.4999 19.376C45.4999 20.144 45.2759 20.808 44.8279 21.368C44.3799 21.928 43.7479 22.368 42.9319 22.688C42.1159 22.992 41.1399 23.144 40.0039 23.144ZM55.1713 10.16C56.2113 10.16 57.1233 10.36 57.9073 10.76C58.7073 11.16 59.3313 11.768 59.7793 12.584C60.2273 13.4 60.4513 14.432 60.4513 15.68V23H58.1473V15.944C58.1473 14.712 57.8433 13.784 57.2353 13.16C56.6433 12.536 55.8033 12.224 54.7153 12.224C53.8993 12.224 53.1873 12.384 52.5793 12.704C51.9713 13.024 51.4993 13.496 51.1633 14.12C50.8433 14.744 50.6833 15.52 50.6833 16.448V23H48.3793V5.192H50.6833V13.712L50.2273 12.8C50.6433 11.968 51.2833 11.32 52.1473 10.856C53.0113 10.392 54.0193 10.16 55.1713 10.16ZM71.4593 23.144C70.3713 23.144 69.3873 22.904 68.5073 22.424C67.6433 21.928 66.9553 21.2 66.4433 20.24C65.9473 19.28 65.6992 18.08 65.6992 16.64C65.6992 15.2 65.9553 14 66.4673 13.04C66.9953 12.08 67.6913 11.36 68.5553 10.88C69.4353 10.4 70.4033 10.16 71.4593 10.16C72.7073 10.16 73.8113 10.432 74.7713 10.976C75.7313 11.52 76.4913 12.28 77.0513 13.256C77.6113 14.216 77.8913 15.344 77.8913 16.64C77.8913 17.936 77.6113 19.072 77.0513 20.048C76.4913 21.024 75.7313 21.784 74.7713 22.328C73.8113 22.872 72.7073 23.144 71.4593 23.144ZM64.7153 23V5.192H67.0193V13.664L66.7793 16.616L66.9233 19.568V23H64.7153ZM71.2673 21.128C72.0833 21.128 72.8113 20.944 73.4513 20.576C74.1073 20.208 74.6193 19.688 74.9873 19.016C75.3713 18.328 75.5633 17.536 75.5633 16.64C75.5633 15.728 75.3713 14.944 74.9873 14.288C74.6193 13.616 74.1073 13.096 73.4513 12.728C72.8113 12.36 72.0833 12.176 71.2673 12.176C70.4673 12.176 69.7393 12.36 69.0833 12.728C68.4433 13.096 67.9313 13.616 67.5473 14.288C67.1793 14.944 66.9953 15.728 66.9953 16.64C66.9953 17.536 67.1793 18.328 67.5473 19.016C67.9313 19.688 68.4433 20.208 69.0833 20.576C69.7393 20.944 70.4673 21.128 71.2673 21.128ZM86.5226 23.144C85.2426 23.144 84.1066 22.864 83.1146 22.304C82.1226 21.744 81.3386 20.976 80.7626 20C80.1866 19.008 79.8986 17.888 79.8986 16.64C79.8986 15.376 80.1866 14.256 80.7626 13.28C81.3386 12.304 82.1226 11.544 83.1146 11C84.1066 10.44 85.2426 10.16 86.5226 10.16C87.7866 10.16 88.9146 10.44 89.9066 11C90.9146 11.544 91.6986 12.304 92.2586 13.28C92.8346 14.24 93.1226 15.36 93.1226 16.64C93.1226 17.904 92.8346 19.024 92.2586 20C91.6986 20.976 90.9146 21.744 89.9066 22.304C88.9146 22.864 87.7866 23.144 86.5226 23.144ZM86.5226 21.128C87.3386 21.128 88.0666 20.944 88.7066 20.576C89.3626 20.208 89.8746 19.688 90.2426 19.016C90.6106 18.328 90.7946 17.536 90.7946 16.64C90.7946 15.728 90.6106 14.944 90.2426 14.288C89.8746 13.616 89.3626 13.096 88.7066 12.728C88.0666 12.36 87.3386 12.176 86.5226 12.176C85.7066 12.176 84.9786 12.36 84.3386 12.728C83.6986 13.096 83.1866 13.616 82.8026 14.288C82.4186 14.944 82.2266 15.728 82.2266 16.64C82.2266 17.536 82.4186 18.328 82.8026 19.016C83.1866 19.688 83.6986 20.208 84.3386 20.576C84.9786 20.944 85.7066 21.128 86.5226 21.128ZM104.088 23V20.312L103.968 19.808V15.224C103.968 14.248 103.68 13.496 103.104 12.968C102.544 12.424 101.696 12.152 100.56 12.152C99.8078 12.152 99.0718 12.28 98.3518 12.536C97.6318 12.776 97.0238 13.104 96.5278 13.52L95.5678 11.792C96.2238 11.264 97.0078 10.864 97.9198 10.592C98.8478 10.304 99.8158 10.16 100.824 10.16C102.568 10.16 103.912 10.584 104.856 11.432C105.8 12.28 106.272 13.576 106.272 15.32V23H104.088ZM99.9118 23.144C98.9678 23.144 98.1358 22.984 97.4158 22.664C96.7118 22.344 96.1678 21.904 95.7838 21.344C95.3998 20.768 95.2078 20.12 95.2078 19.4C95.2078 18.712 95.3678 18.088 95.6878 17.528C96.0238 16.968 96.5598 16.52 97.2958 16.184C98.0478 15.848 99.0558 15.68 100.32 15.68H104.352V17.336H100.416C99.2638 17.336 98.4878 17.528 98.0878 17.912C97.6878 18.296 97.4878 18.76 97.4878 19.304C97.4878 19.928 97.7358 20.432 98.2318 20.816C98.7278 21.184 99.4158 21.368 100.296 21.368C101.16 21.368 101.912 21.176 102.552 20.792C103.208 20.408 103.68 19.848 103.968 19.112L104.424 20.696C104.12 21.448 103.584 22.048 102.816 22.496C102.048 22.928 101.08 23.144 99.9118 23.144ZM110.536 23V10.28H112.744V13.736L112.528 12.872C112.88 11.992 113.472 11.32 114.304 10.856C115.136 10.392 116.16 10.16 117.376 10.16V12.392C117.28 12.376 117.184 12.368 117.088 12.368C117.008 12.368 116.928 12.368 116.848 12.368C115.616 12.368 114.64 12.736 113.92 13.472C113.2 14.208 112.84 15.272 112.84 16.664V23H110.536ZM125.354 23.144C124.122 23.144 123.018 22.872 122.042 22.328C121.082 21.784 120.322 21.024 119.762 20.048C119.202 19.072 118.922 17.936 118.922 16.64C118.922 15.344 119.202 14.216 119.762 13.256C120.322 12.28 121.082 11.52 122.042 10.976C123.018 10.432 124.122 10.16 125.354 10.16C126.426 10.16 127.394 10.4 128.258 10.88C129.122 11.36 129.81 12.08 130.322 13.04C130.85 14 131.114 15.2 131.114 16.64C131.114 18.08 130.858 19.28 130.346 20.24C129.85 21.2 129.17 21.928 128.306 22.424C127.442 22.904 126.458 23.144 125.354 23.144ZM125.546 21.128C126.346 21.128 127.066 20.944 127.706 20.576C128.362 20.208 128.874 19.688 129.242 19.016C129.626 18.328 129.818 17.536 129.818 16.64C129.818 15.728 129.626 14.944 129.242 14.288C128.874 13.616 128.362 13.096 127.706 12.728C127.066 12.36 126.346 12.176 125.546 12.176C124.73 12.176 124.002 12.36 123.362 12.728C122.722 13.096 122.21 13.616 121.826 14.288C121.442 14.944 121.25 15.728 121.25 16.64C121.25 17.536 121.442 18.328 121.826 19.016C122.21 19.688 122.722 20.208 123.362 20.576C124.002 20.944 124.73 21.128 125.546 21.128ZM129.89 23V19.568L130.034 16.616L129.794 13.664V5.192H132.098V23H129.89Z" fill="black"/>
</svg>
