<svg width="20" height="20" viewBox="0 0 20 20" fill="none" xmlns="http://www.w3.org/2000/svg">
<path d="M10.0009 16.8363C9.70929 16.8363 9.46047 16.7327 9.2544 16.5256C9.04834 16.3184 8.94531 16.0694 8.94531 15.7785C8.94531 15.4908 9.04876 15.2427 9.25565 15.0343C9.46255 14.8259 9.71127 14.7217 10.0018 14.7217C10.2951 14.7217 10.5439 14.8267 10.7483 15.0366C10.9527 15.2466 11.0549 15.496 11.0549 15.7848C11.0549 16.0737 10.9521 16.3211 10.7466 16.5272C10.541 16.7333 10.2925 16.8363 10.0009 16.8363ZM10.0009 11.055C9.70929 11.055 9.46047 10.9516 9.2544 10.7447C9.04834 10.5378 8.94531 10.2891 8.94531 9.99851C8.94531 9.70526 9.04876 9.45644 9.25565 9.25203C9.46255 9.04763 9.71127 8.94543 10.0018 8.94543C10.2951 8.94543 10.5439 9.0482 10.7483 9.25374C10.9527 9.4593 11.0549 9.70787 11.0549 9.99945C11.0549 10.291 10.9521 10.5399 10.7466 10.7459C10.541 10.952 10.2925 11.055 10.0009 11.055ZM10.0009 5.27876C9.70929 5.27876 9.46047 5.17468 9.2544 4.96651C9.04834 4.75836 8.94531 4.50814 8.94531 4.21585C8.94531 3.92354 9.04876 3.67435 9.25565 3.46828C9.46255 3.26221 9.71127 3.15918 10.0018 3.15918C10.2951 3.15918 10.5439 3.2632 10.7483 3.47124C10.9527 3.67927 11.0549 3.92944 11.0549 4.22174C11.0549 4.51405 10.9521 4.76329 10.7466 4.96947C10.541 5.17567 10.2925 5.27876 10.0009 5.27876Z" fill="black"/>
</svg>
