<svg width="20" height="20" viewBox="0 0 20 20" fill="none" xmlns="http://www.w3.org/2000/svg">
<path d="M3.11926 15.9426V14.5182H4.9141V8.2827C4.9141 7.08585 5.26449 6.01686 5.96528 5.07574C6.66606 4.1346 7.5939 3.5403 8.7488 3.29284V2.71567C8.7488 2.37131 8.87162 2.08624 9.11724 1.86047C9.36288 1.6347 9.65719 1.52182 10.0002 1.52182C10.3431 1.52182 10.6374 1.6347 10.8831 1.86047C11.1287 2.08624 11.2515 2.37131 11.2515 2.71567V3.29284C12.4097 3.5403 13.3427 4.13376 14.0504 5.07324C14.7582 6.01271 15.112 7.08253 15.112 8.2827V14.5182H16.886V15.9426H3.11926ZM10.0027 18.4575C9.54676 18.4575 9.14794 18.2904 8.80622 17.9562C8.4645 17.622 8.29364 17.2203 8.29364 16.751H11.7117C11.7117 17.2226 11.5439 17.6249 11.2085 17.958C10.873 18.291 10.4711 18.4575 10.0027 18.4575ZM6.33349 14.5182H13.6877V8.2827C13.6877 7.25492 13.3335 6.37992 12.6252 5.6577C11.9168 4.93547 11.0488 4.57436 10.021 4.57436C8.99321 4.57436 8.12169 4.93547 7.40641 5.6577C6.69113 6.37992 6.33349 7.25492 6.33349 8.2827V14.5182Z" fill="black"/>
</svg>
