<svg width="20" height="20" viewBox="0 0 20 20" fill="none" xmlns="http://www.w3.org/2000/svg">
<path d="M16.5782 17.6184L11.0691 12.1143C10.6558 12.4652 10.1724 12.7389 9.61913 12.9354C9.0658 13.132 8.4744 13.2302 7.84494 13.2302C6.31946 13.2302 5.02814 12.7011 3.97098 11.6428C2.91383 10.5846 2.38525 9.30769 2.38525 7.81222C2.38525 6.31674 2.91439 5.03987 3.97267 3.98159C5.03093 2.92333 6.31127 2.3942 7.81369 2.3942C9.31611 2.3942 10.593 2.92333 11.6443 3.98159C12.6956 5.03987 13.2213 6.31779 13.2213 7.81534C13.2213 8.41712 13.1266 8.9933 12.9371 9.54388C12.7476 10.0945 12.4635 10.6111 12.0845 11.0939L17.6144 16.5822L16.5782 17.6184ZM7.82588 11.8109C8.93324 11.8109 9.87275 11.4203 10.6444 10.6391C11.4161 9.85792 11.8019 8.91563 11.8019 7.81222C11.8019 6.7088 11.4158 5.76651 10.6437 4.98534C9.87154 4.20416 8.93227 3.81357 7.82588 3.81357C6.70791 3.81357 5.75821 4.20416 4.97677 4.98534C4.19534 5.76651 3.80463 6.7088 3.80463 7.81222C3.80463 8.91563 4.1951 9.85792 4.97605 10.6391C5.75698 11.4203 6.70692 11.8109 7.82588 11.8109Z" fill="black"/>
</svg>
