<svg width="20" height="14" viewBox="0 0 20 14" fill="none" xmlns="http://www.w3.org/2000/svg">
<path d="M4.699 13.7604C4.01018 13.7604 3.4212 13.5231 2.93206 13.0484C2.44294 12.5737 2.19505 11.9916 2.1884 11.3021H0.71875V1.63813C0.71875 1.25481 0.859486 0.922416 1.14096 0.640958C1.4224 0.359486 1.75479 0.21875 2.13812 0.21875H14.2006V3.63812H16.3533L19.2812 7.54127V11.3021H17.7423C17.7323 11.9916 17.4836 12.5737 16.9961 13.0484C16.5086 13.5231 15.9205 13.7604 15.2316 13.7604C14.5428 13.7604 13.9538 13.5231 13.4647 13.0484C12.9755 12.5737 12.7277 11.9916 12.721 11.3021H7.20471C7.19475 11.986 6.94685 12.5667 6.46102 13.0442C5.97517 13.5217 5.38783 13.7604 4.699 13.7604ZM4.69656 12.4506C5.0299 12.4506 5.31462 12.3326 5.55073 12.0965C5.78684 11.8603 5.9049 11.5756 5.9049 11.2423C5.9049 10.909 5.78684 10.6242 5.55073 10.3881C5.31462 10.152 5.0299 10.034 4.69656 10.034C4.36323 10.034 4.07851 10.152 3.8424 10.3881C3.60628 10.6242 3.48823 10.909 3.48823 11.2423C3.48823 11.5756 3.60628 11.8603 3.8424 12.0965C4.07851 12.3326 4.36323 12.4506 4.69656 12.4506ZM2.13812 9.88271H2.61812C2.85308 9.52431 3.14791 9.23898 3.5026 9.02673C3.8573 8.81446 4.24845 8.70833 4.67606 8.70833C5.10367 8.70833 5.49815 8.8169 5.85948 9.03402C6.22081 9.25115 6.51795 9.53404 6.7509 9.88271H12.7812V1.63813H2.13812V9.88271ZM15.2292 12.4506C15.5625 12.4506 15.8472 12.3326 16.0833 12.0965C16.3194 11.8603 16.4375 11.5756 16.4375 11.2423C16.4375 10.909 16.3194 10.6242 16.0833 10.3881C15.8472 10.152 15.5625 10.034 15.2292 10.034C14.8958 10.034 14.6111 10.152 14.375 10.3881C14.1389 10.6242 14.0208 10.909 14.0208 11.2423C14.0208 11.5756 14.1389 11.8603 14.375 12.0965C14.6111 12.3326 14.8958 12.4506 15.2292 12.4506ZM14.2006 8.14583H17.9561L15.6436 5.0625H14.2006V8.14583Z" fill="black"/>
</svg>
