<svg width="24" height="24" viewBox="0 0 24 24" fill="none" xmlns="http://www.w3.org/2000/svg">
<path d="M11.25 15H12.75V11.75H16V10.25H12.75V7H11.25V10.25H8V11.75H11.25V15ZM8.25 21V19H3.5C3.1 19 2.75 18.85 2.45 18.55C2.15 18.25 2 17.9 2 17.5V4.5C2 4.1 2.15 3.75 2.45 3.45C2.75 3.15 3.1 3 3.5 3H20.5C20.9 3 21.25 3.15 21.55 3.45C21.85 3.75 22 4.1 22 4.5V17.5C22 17.9 21.85 18.25 21.55 18.55C21.25 18.85 20.9 19 20.5 19H15.75V21H8.25ZM3.5 17.5H20.5V4.5H3.5V17.5ZM3.5 17.5V4.5V17.5Z" fill="#676666"/>
</svg>
